<svg xmlns="http://www.w3.org/2000/svg" width="207.116" height="50.005" viewBox="0 0 207.116 50.005"><g id="Group_757" data-name="Group 757" transform="translate(-120.889 -72)"><g id="Group_754" data-name="Group 754" transform="translate(196.851 81.655)"><path id="Path_3072" data-name="Path 3072" d="M197.636,38.122c-.907.021-1.8.031-2.736-.01V25.663a9.332,9.332,0,0,1,2.759-.05c.01.275.025.563.03.851a2.549,2.549,0,0,0,.119.881c.144-.16.291-.319.433-.481a4.216,4.216,0,0,1,4.087-1.488,3.714,3.714,0,0,1,2.75,1.834,1.923,1.923,0,0,0,.214.241c.247-.246.475-.482.711-.709a4.954,4.954,0,0,1,4.052-1.416,3.987,3.987,0,0,1,3.751,3.657,14.554,14.554,0,0,1,.107,1.7c.012,2.219,0,4.437,0,6.655V38a8.238,8.238,0,0,1-2.876.017v-.669c0-2.155.01-4.311-.009-6.466a4.728,4.728,0,0,0-.193-1.242,2.277,2.277,0,0,0-2.787-1.689,2.344,2.344,0,0,0-2.081,1.936,6.658,6.658,0,0,0-.159,1.5c-.017,1.986-.007,3.972-.008,5.958v.771c-.967.013-1.86.037-2.842-.025V37.38c0-2.092.013-4.184-.011-6.275a5.927,5.927,0,0,0-.227-1.491,2.2,2.2,0,0,0-2.119-1.692,2.416,2.416,0,0,0-2.464,1.323,4.2,4.2,0,0,0-.4,1.512c-.065,1.243-.04,2.492-.046,3.738-.005,1.057,0,2.113,0,3.17,0,.122-.027.245-.052.457" transform="translate(-161.556 -20.766)" fill="#093866"></path><path id="Path_3073" data-name="Path 3073" d="M237.919,36.308V41.9h-2.811c-.1-1.354-.033-2.717-.047-4.077s0-2.7,0-4.053V25.587h2.855V27.6c.265-.285.419-.447.569-.614a5.135,5.135,0,0,1,6.889-.661,6.114,6.114,0,0,1,2.533,4.353,7.769,7.769,0,0,1-.8,4.723,5.461,5.461,0,0,1-5.781,2.855,4.827,4.827,0,0,1-2.761-1.426c-.179-.178-.348-.366-.521-.55l-.122.025m7.186-4.586a10.256,10.256,0,0,0-.182-1.127,3.48,3.48,0,0,0-2.639-2.7,3.317,3.317,0,0,0-3.381,1.062,4.374,4.374,0,0,0,.024,5.78,3.409,3.409,0,0,0,5.062.062,4.493,4.493,0,0,0,1.116-3.076" transform="translate(-179.189 -20.768)" fill="#093866"></path><path id="Path_3074" data-name="Path 3074" d="M150.469,20.538c-.629.736-1.216,1.422-1.822,2.132-.328-.261-.616-.505-.92-.727a6.189,6.189,0,0,0-3.877-1.326,5.239,5.239,0,0,0-3.495,1.422,5.879,5.879,0,0,0-1.87,4.348,5.965,5.965,0,0,0,1.336,4.057,5.447,5.447,0,0,0,6.917,1.341,16.307,16.307,0,0,0,1.552-1.086c.15-.108.289-.231.349-.279l1.919,1.836a8.093,8.093,0,0,1-3.484,2.394,8.909,8.909,0,0,1-7.014-.413,7.927,7.927,0,0,1-4.148-4.885,8.819,8.819,0,0,1,1.477-8.381,7.625,7.625,0,0,1,3.779-2.547,9.426,9.426,0,0,1,6.51.194,7.711,7.711,0,0,1,2.79,1.921" transform="translate(-135.445 -17.531)" fill="#093866"></path><path id="Path_3075" data-name="Path 3075" d="M179.086,31.909a6.665,6.665,0,0,1-13.325-.043,6.565,6.565,0,0,1,6.617-6.542,6.443,6.443,0,0,1,6.709,6.585m-10.418.007a3.308,3.308,0,0,0,.31,1.657,3.836,3.836,0,0,0,3.463,2.343,3.667,3.667,0,0,0,3.465-2.313,4.537,4.537,0,0,0,.132-3.039,3.761,3.761,0,0,0-7.37,1.352" transform="translate(-148.758 -20.777)" fill="#093866"></path><path id="Path_3076" data-name="Path 3076" d="M335.281,32.842h-9.172a3.454,3.454,0,0,0,2.012,2.86c1.141.522,2.966.7,4.984-1.153l1.637,1.483a4.779,4.779,0,0,1-1.555,1.409,6.723,6.723,0,0,1-7.8-.62,6.088,6.088,0,0,1-2.08-4.075,7,7,0,0,1,1.007-4.673,6.023,6.023,0,0,1,8.811-1.473,6.107,6.107,0,0,1,1.969,3.39,7.514,7.514,0,0,1,.189,2.851m-2.851-1.9a3.21,3.21,0,0,0-3.387-3.3,3.324,3.324,0,0,0-2.887,3.3Z" transform="translate(-217.925 -20.767)" fill="#093866"></path><path id="Path_3077" data-name="Path 3077" d="M274.233,41.413l.919-2.088c.421.132.811.276,1.212.376a1.71,1.71,0,0,0,1.966-.78,1.147,1.147,0,0,0,.107-1.19c-.708-1.693-1.4-3.4-2.095-5.092-.531-1.288-1.061-2.575-1.6-3.858-.344-.817-.706-1.625-1.058-2.438-.066-.153-.126-.308-.209-.513a2.506,2.506,0,0,1,.439-.086c.7-.007,1.395.02,2.09-.01.394-.017.556.156.684.5q1.579,4.239,3.186,8.468a3.325,3.325,0,0,0,.173.313,23.974,23.974,0,0,0,1.1-3.055c.367-1.034.745-2.063,1.108-3.1.356-1.013.7-2.032,1.057-3.083h2.9a3.859,3.859,0,0,1-.117.486q-1.439,3.751-2.888,7.5c-.679,1.749-1.357,3.5-2.075,5.233a9.533,9.533,0,0,1-.94,1.716,3.183,3.183,0,0,1-2.794,1.45,6.6,6.6,0,0,1-2.3-.368c-.273-.1-.535-.233-.866-.379" transform="translate(-196.064 -20.955)" fill="#093866"></path><path id="Path_3078" data-name="Path 3078" d="M305.585,21.223h-5.2V18.548H313.76v2.665H308.5v13.82a8.3,8.3,0,0,1-2.917.022Z" transform="translate(-207.881 -17.801)" fill="#093866"></path><path id="Path_3079" data-name="Path 3079" d="M358.683,34.371c.233.228.446.431.652.64.325.328.645.66.96.983a6.185,6.185,0,0,1-6.753,2.169,6.4,6.4,0,0,1-4.743-6.187,6.581,6.581,0,0,1,4.16-6.235c2.678-1.032,6-.081,7.26,1.758l-1.682,1.837c-.355-.28-.656-.543-.981-.771a3.517,3.517,0,0,0-3.474-.516,3.732,3.732,0,0,0-1.258.814,4.211,4.211,0,0,0,1.423,6.858,3.649,3.649,0,0,0,3.314-.5c.37-.239.7-.533,1.123-.854" transform="translate(-229.141 -20.773)" fill="#093866"></path><rect id="Rectangle_413" data-name="Rectangle 413" width="2.762" height="17.328" transform="translate(71.987)" fill="#093866"></rect><path id="Path_3080" data-name="Path 3080" d="M220.145,66.094a6.6,6.6,0,0,1,1.6,2.939,8.627,8.627,0,0,1-1.049.008.545.545,0,0,1-.338-.3c-.269-.572-.528-1.15-.752-1.74a1,1,0,0,0-1.105-.731c-.355.024-.712,0-1.137,0-.131.921.011,1.824-.09,2.742h-1.189V62.231a1.049,1.049,0,0,1,.252-.06c1.137.025,2.276.021,3.41.095a1.623,1.623,0,0,1,1.6,1.362c.177,1.043-.091,2-.948,2.307a1.556,1.556,0,0,0-.251.159m-2.8-.789c.693,0,1.3.03,1.906-.01a1.1,1.1,0,0,0,.965-.941,1.006,1.006,0,0,0-.631-1.056,5.046,5.046,0,0,0-2.24-.119Z" transform="translate(-170.858 -36.959)" fill="#093866"></path><path id="Path_3081" data-name="Path 3081" d="M201.775,62.232h1.235v.78c0,1.056-.011,2.112.012,3.168a3.294,3.294,0,0,0,.174.989,1.265,1.265,0,0,0,1.34.938,1.522,1.522,0,0,0,1.645-.916,2.439,2.439,0,0,0,.149-.864c.017-1.141.007-2.281.008-3.422v-.67h1.2a3.363,3.363,0,0,1,.056.427c.005,1.2.022,2.408,0,3.612a3.169,3.169,0,0,1-.7,2.117,1.933,1.933,0,0,1-1.187.672,6.536,6.536,0,0,1-1.45.06,2.432,2.432,0,0,1-2.449-2.482c-.051-.8-.021-1.6-.025-2.407,0-.651,0-1.3,0-2" transform="translate(-164.573 -36.986)" fill="#093866"></path><path id="Path_3082" data-name="Path 3082" d="M178.249,63.091v1.94h3.087v.952h-3.088a9.609,9.609,0,0,0-.026,1.815c.015.25.237.259.434.259l2.215,0h.709v.927H177.1a51.725,51.725,0,0,1-.076-6.722,23.865,23.865,0,0,1,4.552-.04v.864Z" transform="translate(-153.672 -36.944)" fill="#093866"></path><path id="Path_3083" data-name="Path 3083" d="M168.909,63.63a17.576,17.576,0,0,0-1.733-.487,2.722,2.722,0,0,0-1.057.081.9.9,0,0,0-.715.861.843.843,0,0,0,.671.819c.5.149,1.025.241,1.537.367.265.065.529.139.786.229a1.426,1.426,0,0,1,1.025,1.381,1.748,1.748,0,0,1-.8,1.745,4.3,4.3,0,0,1-1.364.453,4.757,4.757,0,0,1-2.941-.527.753.753,0,0,1-.153-.11,1.208,1.208,0,0,1-.116-.163l.349-.9c.3.148.534.271.776.389a3.861,3.861,0,0,0,2.173.243,1.145,1.145,0,0,0,.517-.216.7.7,0,0,0-.036-1.241,3.781,3.781,0,0,0-.891-.3c-.507-.142-1.032-.232-1.525-.411a1.724,1.724,0,0,1-1.218-2.085,1.879,1.879,0,0,1,1.362-1.45,3.87,3.87,0,0,1,3.189.214c.556.276.578.384.289.929a1.3,1.3,0,0,1-.121.18" transform="translate(-148.005 -36.909)" fill="#093866"></path><path id="Path_3084" data-name="Path 3084" d="M193.976,62.9l-.418.957a2.891,2.891,0,0,0-2-.672,1.836,1.836,0,0,0-1.794,1.257,3.3,3.3,0,0,0-.04,2.237,2.042,2.042,0,0,0,2.612,1.284,9.968,9.968,0,0,0,1.238-.522l.436.867a3.3,3.3,0,0,1-2.695.811,3.229,3.229,0,0,1-3.046-3.286,4.118,4.118,0,0,1,.176-1.623,3.362,3.362,0,0,1,3.839-2.073,2.6,2.6,0,0,1,1.7.763" transform="translate(-158.637 -36.921)" fill="#093866"></path><path id="Path_3085" data-name="Path 3085" d="M151.13,62.236v1.01h-2.21v5.792h-1.255c-.061-.613-.02-1.238-.026-1.86-.007-.654,0-1.308,0-1.962V63.257h-2.231V62.236Z" transform="translate(-139.82 -36.988)" fill="#093866"></path><path id="Path_3086" data-name="Path 3086" d="M236.9,63.2h-2.32v-.935a38.1,38.1,0,0,1,5.754,0v.932H238.1c-.035,1.965,0,3.854-.021,5.8H236.9Z" transform="translate(-178.981 -36.95)" fill="#093866"></path><path id="Path_3087" data-name="Path 3087" d="M248.953,68.986c0-.669-.025-1.3.007-1.925a2.5,2.5,0,0,0-.471-1.661c-.589-.822-1.141-1.67-1.71-2.506-.141-.208-.288-.411-.459-.653a2.271,2.271,0,0,1,1.262-.067c.148.022.292.226.392.377.429.651.839,1.315,1.261,1.971.1.153.215.293.379.514.283-.418.533-.775.768-1.14.206-.319.4-.647.593-.972.538-.895.646-.939,1.813-.693-.118.187-.219.359-.33.523-.674.995-1.344,1.992-2.029,2.979a1.316,1.316,0,0,0-.243.827c.015.59.007,1.181,0,1.771,0,.206-.021.411-.035.655Z" transform="translate(-184.138 -36.928)" fill="#093866"></path><path id="Path_3088" data-name="Path 3088" d="M230.719,69.05h-1.028a54.459,54.459,0,0,1-.047-6.826h1.033a57.441,57.441,0,0,1,.042,6.826" transform="translate(-176.777 -36.982)" fill="#093866"></path><rect id="Rectangle_414" data-name="Rectangle 414" width="1.143" height="6.81" transform="translate(2.794 25.239)" fill="#093866"></rect></g><g id="Group_756" data-name="Group 756" transform="translate(120.889 72)"><path id="Path_3089" data-name="Path 3089" d="M76.673,21.953a27.808,27.808,0,0,1,3.1,11.495,26.413,26.413,0,0,1-3.062,13.771c-.7-.36-1.372-.7-2.043-1.05-.074-.038-.144-.086-.165-.1.372-.891.7-1.71,1.057-2.519a20.756,20.756,0,0,0,1.319-4.941c.084-.5.163-1,.218-1.5.061-.557-.02-.628-.549-.672-1.261-.106-2.521-.229-3.782-.337-1.577-.135-3.155-.257-4.733-.391-.647-.054-1.294-.125-1.981-.191v-1.88L77,32.925c.2-.718-.065-2.419-.722-5.019a22.321,22.321,0,0,0-1.842-4.7,13.172,13.172,0,0,1,2.239-1.252" transform="translate(-29.008 -9.642)" fill="#093866"></path><g id="Group_755" data-name="Group 755" transform="translate(0 0)"><path id="Path_3090" data-name="Path 3090" d="M66.875,70.2a17.276,17.276,0,0,1-2.662,2.17c-.383-.28-6.874-9.541-7.14-10.184l1.16-1.016c.494.282,8.257,8.387,8.642,9.03" transform="translate(-25.064 -26.864)" fill="#3f7da3"></path><path id="Path_3091" data-name="Path 3091" d="M58.65,19.886c-.373-.313-.669-.548-.95-.8-.337-.3-.342-.349-.063-.734.669-.922,1.344-1.839,2.017-2.758q2.3-3.139,4.6-6.276c.134-.183.282-.356.466-.586A24.179,24.179,0,0,1,67.494,11c-.951,1.057-1.974,1.989-2.94,2.976s-1.94,1.938-2.91,2.908-1.963,1.965-2.995,3" transform="translate(-25.224 -3.835)" fill="#3f7da3"></path><path id="Path_3092" data-name="Path 3092" d="M56.424,76.856A28,28,0,0,1,53.1,78.037c-.122-.395-.239-.727-.329-1.067q-1.327-4.976-2.646-9.955c-.038-.142-.076-.285-.108-.429-.1-.448-.072-.488.362-.639.219-.076.434-.162.651-.245.434-.164.485-.15.671.27.367.829.723,1.662,1.086,2.493q1.721,3.942,3.443,7.883c.066.151.118.307.2.508" transform="translate(-21.944 -28.812)" fill="#3f7da3"></path><path id="Path_3093" data-name="Path 3093" d="M57.154,3.084,51.9,14.345l-1.56-.61L53.8,1.84a20.846,20.846,0,0,1,3.35,1.244" transform="translate(-22.108 -0.808)" fill="#3f7da3"></path><path id="Path_3094" data-name="Path 3094" d="M44.72.167,43.64,12.343c-.5,0-.962.009-1.419,0-.232-.006-.313-.168-.326-.386-.038-.672-.084-1.344-.128-2.016-.08-1.218-.163-2.435-.239-3.653-.05-.8-.082-1.6-.14-2.4C41.314,2.858,41.229,1.83,41.14.8c-.053-.616.048-.768.667-.789.716-.024,1.434-.015,2.15,0a4.9,4.9,0,0,1,.762.149" transform="translate(-18.062 0)" fill="#3f7da3"></path><path id="Path_3095" data-name="Path 3095" d="M13.519,10.718l2.669-2.27c.492.412,6.54,9.06,6.957,9.929l-1.289,1.086-8.336-8.745" transform="translate(-5.937 -3.71)" fill="#3f7da3"></path><path id="Path_3096" data-name="Path 3096" d="M43.6,79.551a33.459,33.459,0,0,1-3.572-.071c.045-.512.084-.965.125-1.419.077-.859.153-1.718.233-2.576.16-1.7.333-3.392.482-5.09.074-.839.108-1.682.16-2.523.031-.5.071-.543.55-.553,1.207-.024,1.227-.026,1.344,1.174.08.817.09,1.641.144,2.461q.263,4.067.534,8.132c.008.124,0,.249,0,.465" transform="translate(-17.578 -29.561)" fill="#3f7da3"></path><path id="Path_3097" data-name="Path 3097" d="M5.673,62.414a21.931,21.931,0,0,1-1.7-3.05c3.581-1.763,7.19-3.327,10.785-5.061l.822,1.435c-.344.427-9.06,6.306-9.9,6.676" transform="translate(-1.742 -23.848)" fill="#3f7da3"></path><path id="Path_3098" data-name="Path 3098" d="M25.185,76.3l5.1-10.919,1.612.569L28.511,77.58A19.721,19.721,0,0,1,25.185,76.3" transform="translate(-11.06 -28.714)" fill="#3f7da3"></path><path id="Path_3099" data-name="Path 3099" d="M.538,51.237C.353,50.148.179,49.134.01,48.12c-.047-.281.062-.436.367-.458q1.735-.119,3.469-.26c1.2-.1,2.394-.215,3.59-.321,1.26-.113,2.518-.236,3.779-.329.666-.049.679-.018.734.619.029.331.167.749.02.97s-.584.239-.9.32q-3.216.813-6.437,1.611-1.779.442-3.561.874c-.138.034-.281.049-.531.091" transform="translate(0 -20.525)" fill="#3f7da3"></path><path id="Path_3100" data-name="Path 3100" d="M32.737,13.553l-1.552.567L26.326,3.033a18.428,18.428,0,0,1,3.265-1.248c.095.263.187.469.245.685q.9,3.4,1.785,6.793c.3,1.122.6,2.241.9,3.362.075.283.135.57.219.927" transform="translate(-11.561 -0.784)" fill="#3f7da3"></path><path id="Path_3101" data-name="Path 3101" d="M12.023,38.086C8.06,37.854,4.2,37.2.252,36.859a4.664,4.664,0,0,1,.006-.719c.115-.685.247-1.368.388-2.049s.243-.741.9-.569c.795.209,1.588.425,2.381.639l7.567,2.05c.142.039.283.082.427.116.309.072.4.237.316.556-.1.38-.14.776-.211,1.2" transform="translate(-0.105 -14.686)" fill="#3f7da3"></path><path id="Path_3102" data-name="Path 3102" d="M21.214,60.79l1.285,1.1-7.141,9.762a27.3,27.3,0,0,1-2.582-2.4c2.746-2.874,5.594-5.6,8.438-8.464" transform="translate(-5.61 -26.697)" fill="#3f7da3"></path><path id="Path_3103" data-name="Path 3103" d="M4.426,22.407l1.823-3.07,9.809,6.911c-.16.275-.292.506-.43.735s-.266.426-.449.716c-3.565-1.727-7.068-3.551-10.753-5.291" transform="translate(-1.943 -8.493)" fill="#3f7da3"></path></g></g></g></svg>